<?xml version="1.0" encoding="UTF-8"?> <svg xmlns="http://www.w3.org/2000/svg" id="Layer_1" viewBox="0 0 331.66 65.67"><defs><style> .cls-1{fill:#14141a} </style></defs><path d="M83.16 45.89V19.78h6.9v19.77h10.74v6.34H83.16ZM101.8 45.89l10-26.11h6.86l-9.55 26.11h-7.31Zm4.7-4.18v-6.08h18.05v6.08H106.5Zm15.41 4.18-9.55-26.11h6.86l10 26.11h-7.31ZM131.72 45.89V19.78h7.27l10.18 14.36V19.78h6.9v26.11h-6.9l-10.55-14.88v14.88h-6.9ZM160.55 45.89V19.78h8.73c2.86 0 5.39.56 7.59 1.68 2.2 1.12 3.92 2.65 5.17 4.61 1.24 1.95 1.86 4.21 1.86 6.77s-.62 4.79-1.86 6.75c-1.24 1.96-2.97 3.51-5.17 4.62-2.2 1.12-4.73 1.68-7.59 1.68h-8.73Zm6.9-6.53h1.83c1.09 0 2.1-.16 3.02-.48a7.52 7.52 0 0 0 2.39-1.34c.67-.57 1.19-1.25 1.57-2.05.37-.8.56-1.68.56-2.65s-.19-1.85-.56-2.65c-.37-.8-.9-1.48-1.57-2.05a7.412 7.412 0 0 0-2.39-1.34c-.92-.32-1.93-.48-3.02-.48h-1.83v13.05ZM196.2 46.34c-1.22 0-2.41-.17-3.58-.5-1.17-.34-2.23-.8-3.19-1.4-.96-.6-1.75-1.27-2.37-2.03-.62-.76-.99-1.56-1.12-2.41l6.86-1.9c.22.62.61 1.15 1.16 1.58.55.44 1.25.68 2.13.73.7.02 1.31-.16 1.85-.56.53-.4.8-.92.8-1.57 0-.42-.16-.83-.47-1.21-.31-.39-.8-.67-1.47-.84l-3.92-1.01c-1.34-.35-2.49-.88-3.45-1.6-.96-.72-1.69-1.6-2.2-2.65s-.76-2.21-.76-3.51c0-2.56.85-4.56 2.55-5.99 1.7-1.43 4.1-2.14 7.18-2.14 1.64 0 3.09.21 4.35.63 1.25.42 2.34 1.09 3.24 2 .91.91 1.66 2.09 2.26 3.56l-6.83 1.98c-.12-.5-.44-.99-.95-1.49s-1.2-.75-2.07-.75-1.5.19-1.96.56c-.46.37-.69.92-.69 1.64 0 .45.19.84.56 1.17.37.34.91.59 1.6.76l3.95 1.01c1.99.5 3.54 1.47 4.66 2.93 1.12 1.45 1.68 3.11 1.68 4.98 0 1.72-.39 3.17-1.17 4.36-.78 1.19-1.91 2.1-3.38 2.72s-3.22.93-5.26.93ZM221.49 46.34c-2.61 0-4.92-.58-6.92-1.73-2-1.16-3.58-2.75-4.72-4.77-1.14-2.03-1.72-4.36-1.72-6.99s.57-4.97 1.72-6.99c1.14-2.03 2.72-3.62 4.72-4.77 2-1.16 4.31-1.73 6.92-1.73 2.01 0 3.83.35 5.45 1.04 1.62.7 3.01 1.67 4.18 2.91 1.17 1.24 2.06 2.69 2.69 4.33l-6.56 2.09c-.35-.82-.8-1.53-1.34-2.14a5.593 5.593 0 0 0-1.92-1.4c-.73-.32-1.56-.48-2.48-.48-1.22 0-2.3.3-3.24.91-.95.61-1.69 1.45-2.22 2.52-.54 1.07-.8 2.31-.8 3.73s.27 2.63.82 3.71 1.3 1.93 2.26 2.54c.96.61 2.06.91 3.3.91.97 0 1.81-.17 2.52-.5.71-.34 1.32-.81 1.83-1.42.51-.61.95-1.32 1.32-2.14l6.56 2.09c-.6 1.64-1.48 3.09-2.65 4.35-1.17 1.26-2.57 2.23-4.21 2.93-1.64.7-3.47 1.04-5.48 1.04ZM234.65 45.89l10-26.11h6.86l-9.55 26.11h-7.31Zm4.7-4.18v-6.08h18.05v6.08h-18.05Zm15.41 4.18-9.55-26.11h6.86l10 26.11h-7.31ZM264.56 45.89V19.78h10.82c1.96 0 3.7.39 5.22 1.16 1.52.77 2.7 1.84 3.56 3.21.86 1.37 1.29 2.95 1.29 4.74s-.43 3.38-1.29 4.75c-.86 1.38-2.05 2.46-3.56 3.25-1.52.78-3.26 1.17-5.22 1.17h-3.92v7.83h-6.9Zm6.9-14.17h3.73c.94 0 1.71-.26 2.29-.78.58-.52.88-1.21.88-2.05s-.29-1.49-.88-2.01c-.58-.52-1.35-.78-2.29-.78h-3.73v5.63ZM287.87 45.89V19.78h17.49v6.34h-10.59v3.62h8.58v6.15h-8.58v3.65h10.85v6.34h-17.75ZM309.73 45.89V19.78h10.82c1.96 0 3.7.38 5.22 1.14 1.52.76 2.7 1.8 3.56 3.13.86 1.33 1.29 2.87 1.29 4.61s-.43 3.29-1.29 4.64c-.86 1.36-2.05 2.41-3.56 3.17-1.52.76-3.26 1.14-5.22 1.14h-3.92v8.28h-6.9Zm6.9-14.62h3.54c.62 0 1.17-.11 1.64-.34.47-.22.85-.53 1.12-.93.27-.4.41-.84.41-1.34 0-.75-.29-1.36-.88-1.85-.58-.48-1.35-.73-2.29-.73h-3.54v5.18Zm7.12 14.62-5.82-10.26 5.18-3.88 8.54 14.14h-7.91Z" class="cls-1"></path><circle cx="32.84" cy="32.84" r="32.84" style="fill:#74cc1d"></circle><path d="M51.47 21.46c-4.28-4.58-11.46-4.83-16.05-.55-.19.18-.37.36-.55.55-.82.86-1.51 1.83-2.05 2.89-.54-1.06-1.22-2.03-2.04-2.89-4.28-4.58-11.46-4.83-16.05-.55-.19.18-.37.36-.55.55-.52.54-.5 1.4.05 1.92.12.11.25.2.39.26l9.53 4.16c-3.1.83-5.75 2.86-7.36 5.64a12.018 12.018 0 0 0-1.22 9.23c.2.72.94 1.15 1.67.96.17-.05.33-.12.47-.23l13.76-10.48v17.55c0 .75.61 1.36 1.36 1.36s1.36-.61 1.36-1.36V32.92L47.95 43.4a1.355 1.355 0 0 0 2.13-.73c.85-3.11.41-6.44-1.22-9.23a12.13 12.13 0 0 0-7.37-5.64l9.55-4.16c.69-.3 1-1.1.7-1.79a1.16 1.16 0 0 0-.26-.39Zm-28.99-.89c2.4 0 4.69 1.01 6.33 2.76a9.578 9.578 0 0 1 2.42 4.57l-13.52-5.89a8.607 8.607 0 0 1 4.77-1.45Zm-4.6 19.28c-.06-1.77.38-3.52 1.27-5.04a9.437 9.437 0 0 1 5.77-4.4c.81-.22 1.65-.33 2.48-.32.93 0 1.86.14 2.76.41l-12.28 9.36ZM46.5 34.8a9.22 9.22 0 0 1 1.27 5.04l-12.28-9.36c4.23-1.28 8.78.51 11.01 4.31Zm-12.08-6.9c.37-1.72 1.21-3.3 2.42-4.57a8.651 8.651 0 0 1 6.33-2.76c1.7 0 3.36.5 4.77 1.45l-13.52 5.89Z" style="fill:#fff"></path></svg> 